<svg xmlns="http://www.w3.org/2000/svg" width="467.002" height="512" viewBox="0 0 467.002 512">
  <g id="crystal-ball" transform="translate(-22.5)">
    <path id="Path_12" data-name="Path 12" d="M472,512H40a7.5,7.5,0,0,1-7.247-9.433l6.062-22.73a37.561,37.561,0,0,1,30.348-27.373l4.7-17.627A37.565,37.565,0,0,1,101,408.121a235.632,235.632,0,0,1-53.081-68.575A233.544,233.544,0,0,1,256,0a234.277,234.277,0,0,1,59.006,7.522,7.5,7.5,0,0,1-3.779,14.516A219.271,219.271,0,0,0,256,15,218.586,218.586,0,0,0,61.275,332.725,220.561,220.561,0,0,0,123.165,407h26.364A203.59,203.59,0,0,1,98.973,104.052a7.5,7.5,0,1,1,11.569,9.548,187.63,187.63,0,0,0-25.216,39.9c17.057-16.584,39.436-26.655,63.912-26.655,45.141,0,81.865,33.388,81.865,74.428a67.262,67.262,0,0,1-9.885,35.381,42.955,42.955,0,0,1,25.95,23.81,68.785,68.785,0,0,1,47.586-18.6A73.026,73.026,0,0,1,344.881,262.1a40.707,40.707,0,0,1,50.272-22.577,142.214,142.214,0,0,0,5.879-16.288,30.58,30.58,0,0,1,5.372-57.06c-2.389-28.088-11.436-53.235-19.711-68.387a188.344,188.344,0,0,0-255-5.992,7.5,7.5,0,0,1-9.9-11.272,203.331,203.331,0,0,1,275.923,7.07c.158.142.312.292.46.449a203.435,203.435,0,0,1,38.7,238.8,7.5,7.5,0,0,1-13.324-6.889,188.506,188.506,0,0,0-7.142-185.362,196.578,196.578,0,0,1,5.42,37.7,7.5,7.5,0,0,1-7.492,7.836,15.572,15.572,0,0,0-2.875,30.876,7.5,7.5,0,0,1,5.918,9.137,156.955,156.955,0,0,1-11.8,32.545,7.5,7.5,0,0,1-10.474,3.174,25.705,25.705,0,0,0-38.527,22.279,7.5,7.5,0,0,1-13.556,4.425c-11.932-16.33-29.527-25.7-48.275-25.7-28.005,0-50.789,20.169-50.789,44.96,0,19.97,14.285,36.217,31.845,36.217,13.944,0,25.288-9.873,25.288-22.009,0-9.424-6.563-17.09-14.632-17.09a7.5,7.5,0,0,1,0-15c16.339,0,29.632,14.4,29.632,32.09,0,20.407-18.073,37.009-40.288,37.009-25.83,0-46.845-22.976-46.845-51.217a55.3,55.3,0,0,1,6.617-26.2,27.9,27.9,0,0,0-25.011-25.995,54.528,54.528,0,0,1-37.165,14.911c-27.2,0-49.33-20.253-49.33-45.147,0-21.435,16.031-38.873,35.735-38.873a7.5,7.5,0,0,1,0,15c-11.434,0-20.735,10.709-20.735,23.873,0,16.623,15.4,30.147,34.33,30.147,23.543,0,42.7-21.655,42.7-48.273,0-32.769-30-59.428-66.865-59.428-45.07,0-81.737,41.115-81.737,91.653A188.156,188.156,0,0,0,182.183,407H329.818a188.985,188.985,0,0,0,78.468-62.384,7.5,7.5,0,1,1,12.109,8.851A204.306,204.306,0,0,1,362.41,407h26.426a220.575,220.575,0,0,0,61.878-74.252,218.767,218.767,0,0,0-13.785-221.792A218.5,218.5,0,0,0,340.183,31.8a7.5,7.5,0,0,1,5.784-13.84A233.566,233.566,0,0,1,489.5,233.5a231.012,231.012,0,0,1-25.429,106.071,235.659,235.659,0,0,1-53.068,68.551,37.565,37.565,0,0,1,27.135,26.716l4.7,17.627a37.564,37.564,0,0,1,30.349,27.373l6.062,22.73A7.5,7.5,0,0,1,472,512ZM49.762,497H462.239l-3.547-13.3a22.527,22.527,0,0,0-21.74-16.7H197.83a7.5,7.5,0,0,1,0-15H427.189l-3.546-13.3A22.527,22.527,0,0,0,401.9,422H110.1a22.526,22.526,0,0,0-21.74,16.7L84.81,452h83.021a7.5,7.5,0,0,1,0,15H75.049a22.526,22.526,0,0,0-21.74,16.7Zm238.1-277.309a8,8,0,1,1,8-8A8.009,8.009,0,0,1,287.862,219.691ZM333.188,203c-7.523,0-9.877-8.544-11.008-12.65-1.246-4.521-2.367-10.262-3.451-15.813-.906-4.64-2.216-11.345-3.157-14.225-2.1-.843-6.408-2.022-9.42-2.848-12.268-3.362-21.958-6.018-21.958-14.523s9.689-11.161,21.958-14.522c3.011-.825,7.315-2,9.42-2.848.941-2.879,2.251-9.585,3.157-14.225,1.084-5.552,2.2-11.292,3.451-15.814,1.131-4.106,3.484-12.65,11.008-12.65s9.877,8.544,11.008,12.65c1.246,4.521,2.367,10.262,3.451,15.814.906,4.64,2.216,11.345,3.157,14.225,2.1.843,6.409,2.022,9.42,2.848,12.269,3.362,21.958,6.017,21.958,14.522s-9.69,11.161-21.958,14.523c-3.011.825-7.315,2.005-9.42,2.848-.941,2.879-2.251,9.585-3.157,14.225-1.084,5.551-2.2,11.292-3.451,15.813C343.065,194.458,340.712,203,333.188,203Zm-23.276-60.059.2.057c8.831,2.42,13.572,3.816,16.426,6.668,2.883,2.883,4.114,7.771,6.646,20.652,2.531-12.881,3.763-17.769,6.645-20.651,2.854-2.853,7.6-4.249,16.427-6.669l.2-.056-.2-.056c-8.833-2.42-13.574-3.816-16.428-6.669-2.882-2.883-4.113-7.771-6.645-20.652-2.531,12.88-3.763,17.769-6.645,20.651-2.854,2.854-7.6,4.25-16.428,6.669l-.2.056Zm6.6,17.81Zm50.962,26.679a8,8,0,1,1,8-8A8.009,8.009,0,0,1,367.472,187.432ZM168.426,107.981a8,8,0,1,1,8-8A8.009,8.009,0,0,1,168.426,107.981Zm119.436-.5a22.5,22.5,0,1,1,22.5-22.5A22.526,22.526,0,0,1,287.862,107.481Zm0-30a7.5,7.5,0,1,0,7.5,7.5A7.508,7.508,0,0,0,287.862,77.481Zm-50.9,4.744a8,8,0,1,1,8-8A8.009,8.009,0,0,1,236.965,82.225Z" fill="#d67b35"/>
  </g>
</svg>
