<?xml version="1.0"?>
<svg xmlns="http://www.w3.org/2000/svg" xmlns:xlink="http://www.w3.org/1999/xlink" xmlns:svgjs="http://svgjs.com/svgjs" version="1.1" width="512" height="512" x="0" y="0" viewBox="0 0 512.00053 512" style="enable-background:new 0 0 512 512" xml:space="preserve" class=""><g><path xmlns="http://www.w3.org/2000/svg" d="m511.0625 295.394531c-.96875-10.203125-7.046875-19.003906-16.261719-23.539062-9.222656-4.539063-19.921875-3.992188-28.613281 1.472656-8.53125 5.363281-20.023438 11.425781-34.277344 16.414063l34.980469-77.484376c7.316406 6.757813 11.679687 18.585938 12.210937 33.753907.144532 4.140625 3.652344 7.355469 7.757813 7.234375 4.140625-.144532 7.375-3.617188 7.230469-7.757813-.875-25.050781-10.839844-43.691406-27.34375-51.140625-25.136719-11.351562-58.648438 6.378906-81.898438 42.429688-1.59375-1.175782-3.238281-2.304688-4.929687-3.378906 6.855469-11.980469 11.238281-24.527344 13.035156-37.394532 3.722656-26.640625-5.367187-52.605468-24.941406-71.234375-12.125-11.542969-27.292969-19.070312-43.414063-21.988281 5.71875-34.3125-21.71875-67.21875-73.835937-87.398438-31.976563-12.378906-67.980469-17.65625-98.765625-14.476562-35.675782 3.683594-61.15625 18.59375-71.746094 41.980469-9.183594 20.277343-12.890625 39.042969-11.015625 55.769531.460937 4.117188 4.171875 7.085938 8.289063 6.617188 4.117187-.460938 7.078124-4.171876 6.617187-8.285157-1.570313-14.007812 1.71875-30.128906 9.773437-47.914062 18.054688-39.867188 92.878907-42.375 151.433594-19.703125 35.886719 13.890625 70.496094 39.816406 64.253906 72.042968-5.347656-.011718-10.726562.472657-16.066406 1.492188-31.984375 6.089844-64.5625 5.746094-96.070312 5.410156-43.628906-.460937-84.835938-.894531-118.644532 16.007813-23.789062 11.894531-37.402343 31.703125-41.136718 58.789062-4.269532 30.984375 4.613281 57.21875 4.160156 57.703125-30.507812 31.496094-47.40625 81.21875-40.183594 118.257813 7.941406 40.714843 40.804688 53.683593 76.6875 64.375.058594.015625.121094.035156.179688.050781 27.046875 7.320312 82.726562 18.667969 151.066406 23.53125 36.191406 2.574219 66.097656-4.386719 88.84375-13.714844 10.285156 7.871094 25.820312 14.023438 50.769531 14.023438 37.222657 0 70.300781-10.03125 96.34375-29.335938 20.082031-14.886718 33.855469-35.296875 40.9375-60.65625 5.179688-18.539062 6.71875-39.382812 4.574219-61.953125zm-34.410156-10.613281c-35.910156 52.855469-76.101563 69.492188-97.640625 74.714844-34.855469 8.449218-55.46875 25.652344-67.511719 41.429687-5.554688-12.550781-5.84375-26.640625-.585938-39.648437v.003906c11.351563-28.082031 36.925782-43.589844 75.945313-46.933594 54.730469-4.6875 88.9375-29.238281 89.792969-29.566406zm-23.417969-78.726562-40.25 89.15625c-.019531.003906-.039063.011718-.0625.015624-.847656-21.324218-7.480469-37.089843-16.816406-48.160156 16.582031-26.800781 39.371093-42.914062 57.128906-41.011718zm-222.894531 225.996093c-66.941406-3.339843-121.300782-15.835937-147.800782-23.003906-39.328124-11.726563-60.363281-23.128906-66.15625-52.839844-2.90625-14.890625-1.140624-33.421875 4.96875-52.175781 6.589844-20.230469 17.417969-38.5 31.3125-52.828125.039063-.039063.074219-.078125.109376-.113281 29.425781-31.644532 75.542968-47.582032 129.859374-44.871094 38.3125 1.910156 78.570313 7.242188 116.433594 15.410156 4.050782.878906 8.035156-1.699218 8.910156-5.75.875-4.046875-1.699218-8.039062-5.75-8.910156-38.640624-8.339844-79.738281-13.777344-118.847656-15.730469-50.976562-2.546875-95.535156 10.371094-127.660156 36.605469-2.976562-12.617188-5.078125-27.984375-3.160156-42.804688 2.828125-21.859374 13.921875-37.773437 32.972656-47.296874 30.5625-15.285157 70.011719-14.867188 111.777344-14.425782 32.242187.339844 65.578125.691406 99.03125-5.675781 22.46875-4.277344 44.824218 2.277344 61.332031 17.992187 16.027344 15.253907 23.472656 36.503907 20.429687 58.296876-1.550781 11.078124-5.378906 21.933593-11.394531 32.355468-9.953125-4.5625-20.871093-8.125-32.082031-11.464844-3.976562-1.183593-8.144531 1.074219-9.328125 5.042969-1.183594 3.972657 1.078125 8.148438 5.046875 9.332031 39.386719 11.734376 60.449219 23.132813 66.25 52.867188.957031 4.917969 1.40625 10.265625 1.34375 15.964844-11.667969 5.003906-41.039062-.480469-71.890625 20.644531-13.234375 9.058594-22.863281 21.707031-29.039063 36.988281-8.03125 19.867188-4.761718 52.492188 9.695313 66.105469-22.675781 8.21875-48.296875 11.683594-76.363281 10.285156zm226.277344-26.09375c-33.449219 24.796875-73.339844 27.933594-100.890626 25.925781-24.792968-1.808593-34.582031-16.304687-35.511718-17.359374 13.183594-20.011719 34.121094-33.613282 62.328125-40.449219 26.097656-6.328125 50.773437-20.375 73.355469-41.753907 15.996093-15.144531 28.144531-31.382812 36.382812-44 12.210938 16.707032 2.855469 89.078126-35.664062 117.636719zm0 0" fill="#d67b35" data-original="#000000" style=""/></g></svg>
