<svg xmlns="http://www.w3.org/2000/svg" width="502.001" height="502.001" viewBox="0 0 502.001 502.001">
  <g id="hour-glass" transform="translate(-4.999 -5.002)">
    <path id="Path_13" data-name="Path 13" d="M78.516,433.484a251.014,251.014,0,0,0,337.146,16.2,6,6,0,1,0-7.638-9.255c-97.176,80.125-239.856,71.086-326.144-20.662s-86.566-234.713-.637-326.8l10.965,10.964a6.583,6.583,0,0,0,11.13-3.468l7.53-41.094a6.583,6.583,0,0,0-7.593-7.676L61.8,58.846a6.583,6.583,0,0,0-3.539,11.142l14.494,14.5c-92.529,98.844-89.981,253.263,5.76,349ZM97.667,64.84,93.4,88.15,74.14,68.9Z" fill="#d67b35"/>
    <path id="Path_14" data-name="Path 14" d="M492.9,318.648a6,6,0,0,0-7.437,4.086c-2.171,7.46-4.735,14.909-7.622,22.138a6,6,0,0,0,11.144,4.451c3.031-7.588,5.722-15.406,8-23.238A6,6,0,0,0,492.9,318.648Z" fill="#d67b35"/>
    <path id="Path_15" data-name="Path 15" d="M502.5,303.185c1.541-8.027,2.7-16.217,3.448-24.34a6,6,0,0,0-11.95-1.1c-.71,7.734-1.815,15.531-3.283,23.175a6,6,0,1,0,11.785,2.263Z" fill="#d67b35"/>
    <path id="Path_16" data-name="Path 16" d="M240.327,17.493c.127,0,.255,0,.383-.012,7.74-.489,15.654-.607,23.407-.346a6,6,0,1,0,.4-11.993c-8.135-.271-16.441-.149-24.563.363a6,6,0,0,0,.372,11.988Z" fill="#d67b35"/>
    <path id="Path_17" data-name="Path 17" d="M410.529,73.67c5.925,5.027,11.675,10.407,17.088,15.991a6,6,0,1,0,8.615-8.353c-5.683-5.862-11.719-11.511-17.94-16.788a6,6,0,1,0-7.763,9.15Z" fill="#d67b35"/>
    <path id="Path_18" data-name="Path 18" d="M331.094,29.034c7.375,2.439,14.716,5.276,21.821,8.431A6,6,0,1,0,357.786,26.5c-7.464-3.314-15.177-6.3-22.925-8.856a6,6,0,1,0-3.767,11.393Z" fill="#d67b35"/>
    <path id="Path_19" data-name="Path 19" d="M484.916,187.084c2.236,7.437,4.127,15.076,5.621,22.7a6,6,0,0,0,11.777-2.306c-1.57-8.015-3.557-16.04-5.906-23.854a6,6,0,0,0-11.492,3.455Z" fill="#d67b35"/>
    <path id="Path_20" data-name="Path 20" d="M467.577,144.736c3.626,6.88,6.949,14.016,9.877,21.208a6,6,0,1,0,11.114-4.524c-3.076-7.556-6.566-15.051-10.375-22.278a6,6,0,1,0-10.616,5.594Z" fill="#d67b35"/>
    <path id="Path_21" data-name="Path 21" d="M456.2,125.414a6,6,0,1,0,10.044-6.566c-4.462-6.827-9.318-13.518-14.432-19.887a6,6,0,1,0-9.356,7.514C447.33,112.54,451.954,118.912,456.2,125.414Z" fill="#d67b35"/>
    <path id="Path_22" data-name="Path 22" d="M372.957,47.523c6.769,3.806,13.435,7.995,19.811,12.452a6,6,0,1,0,6.875-9.835c-6.7-4.681-13.7-9.08-20.806-13.078a6,6,0,1,0-5.88,10.461Z" fill="#d67b35"/>
    <path id="Path_23" data-name="Path 23" d="M499.181,225.4a6,6,0,0,0-5.374,6.566c.77,7.712,1.171,15.575,1.191,23.369a6,6,0,0,0,6,5.984h.017A6,6,0,0,0,507,255.305c-.021-8.18-.442-16.433-1.25-24.529a6,6,0,0,0-6.569-5.376Z" fill="#d67b35"/>
    <path id="Path_24" data-name="Path 24" d="M194,24.913a5.985,5.985,0,0,0,1.518-.2c7.511-1.959,15.216-3.567,22.9-4.78a6,6,0,1,0-1.871-11.854c-8.072,1.275-16.166,2.965-24.058,5.023A6,6,0,0,0,194,24.913Z" fill="#d67b35"/>
    <path id="Path_25" data-name="Path 25" d="M149.96,41.078a5.964,5.964,0,0,0,2.6-.6c7.008-3.37,14.261-6.427,21.559-9.089A6,6,0,1,0,170,20.12c-7.667,2.8-15.287,6.009-22.648,9.549a6,6,0,0,0,2.6,11.409Z" fill="#d67b35"/>
    <path id="Path_26" data-name="Path 26" d="M286.469,18.923c7.72.982,15.469,2.357,23.033,4.087a6,6,0,1,0,2.674-11.7c-7.945-1.817-16.084-3.261-24.193-4.293a6,6,0,1,0-1.514,11.9Z" fill="#d67b35"/>
    <path id="Path_27" data-name="Path 27" d="M432.581,377.132,431.4,417.951a6.567,6.567,0,0,0,8.653,6.416l39.007-13.058a6.57,6.57,0,0,0,1.8-11.527l-12.8-9.4c4-6.349,7.767-12.933,11.188-19.62a6,6,0,0,0-10.684-5.465c-3.129,6.117-6.564,12.141-10.2,17.966L443.042,372.02a6.57,6.57,0,0,0-10.453,5.108Zm11.7,10.688,21.036,15.436-21.692,7.263Z" fill="#d67b35"/>
    <path id="Path_28" data-name="Path 28" d="M232.077,197.93a6.63,6.63,0,1,0,6.63,6.63,6.63,6.63,0,0,0-6.63-6.63Z" fill="#d67b35"/>
    <path id="Path_29" data-name="Path 29" d="M267.606,221.552a6.63,6.63,0,1,0-6.629-6.63A6.63,6.63,0,0,0,267.606,221.552Z" fill="#d67b35"/>
    <path id="Path_30" data-name="Path 30" d="M195.067,369.655a6.63,6.63,0,1,0,6.63,6.63,6.63,6.63,0,0,0-6.63-6.63Z" fill="#d67b35"/>
    <path id="Path_31" data-name="Path 31" d="M253.575,377.766a6.63,6.63,0,1,0,6.63-6.63,6.63,6.63,0,0,0-6.63,6.63Z" fill="#d67b35"/>
    <path id="Path_32" data-name="Path 32" d="M226.155,340.048a6.63,6.63,0,1,0,6.63,6.63,6.63,6.63,0,0,0-6.63-6.63Z" fill="#d67b35"/>
    <circle id="Ellipse_1" data-name="Ellipse 1" cx="6.629" cy="6.629" r="6.629" transform="translate(281.703 340.048)" fill="#d67b35"/>
    <path id="Path_33" data-name="Path 33" d="M316.459,382.915a6.63,6.63,0,1,0-6.629-6.63A6.63,6.63,0,0,0,316.459,382.915Z" fill="#d67b35"/>
    <path id="Path_34" data-name="Path 34" d="M257.244,323.7a6.63,6.63,0,1,0-6.63-6.63A6.63,6.63,0,0,0,257.244,323.7Z" fill="#d67b35"/>
    <path id="Path_35" data-name="Path 35" d="M189,129h-2a6,6,0,0,0,0,12h2a6,6,0,0,0,0-12Z" fill="#d67b35"/>
    <path id="Path_36" data-name="Path 36" d="M271,129H209a6,6,0,0,0,0,12h62a6,6,0,0,0,0-12Z" fill="#d67b35"/>
    <path id="Path_37" data-name="Path 37" d="M224.81,266.833a95.114,95.114,0,0,0-63.863,89.793v39.4a23.243,23.243,0,0,0,4.368,46.062h181.37a23.243,23.243,0,0,0,4.368-46.062v-39.4a95.113,95.113,0,0,0-63.863-89.793,15.439,15.439,0,0,1,0-29.252,95.113,95.113,0,0,0,63.863-89.793V115.979a23.243,23.243,0,0,0-4.368-46.062H165.315a23.243,23.243,0,0,0-4.368,46.062v31.809a95.114,95.114,0,0,0,63.863,89.793,15.439,15.439,0,0,1,0,29.252ZM357.878,418.89a11.205,11.205,0,0,1-11.193,11.193H165.315a11.241,11.241,0,1,1,0-22.481h181.37a11.227,11.227,0,0,1,11.193,11.288ZM172.947,147.79V116.4h12.8a6,6,0,0,0,0-12H165.315a11.228,11.228,0,0,1-11.193-11.374,11.418,11.418,0,0,1,11.539-11.107H346.685A11.227,11.227,0,0,1,357.878,93.29a11.419,11.419,0,0,1-11.539,11.11H225.744a6,6,0,0,0,0,12H339.053v31.39a82.808,82.808,0,0,1-4.548,27.053l-157.005.015a82.81,82.81,0,0,1-4.553-27.07Zm55.8,78.457a83.009,83.009,0,0,1-46.011-39.389h146.53a83.009,83.009,0,0,1-46.011,39.389,27.437,27.437,0,0,0,0,51.923,83.107,83.107,0,0,1,55.8,78.458V395.6H172.947V356.626a83.107,83.107,0,0,1,55.8-78.458,27.437,27.437,0,0,0,0-51.923Z" fill="#d67b35"/>
  </g>
</svg>
