<?xml version="1.0"?>
<svg xmlns="http://www.w3.org/2000/svg" xmlns:xlink="http://www.w3.org/1999/xlink" xmlns:svgjs="http://svgjs.com/svgjs" version="1.1" width="512" height="512" x="0" y="0" viewBox="0 0 128 128" style="enable-background:new 0 0 512 512" xml:space="preserve" class=""><g><g xmlns="http://www.w3.org/2000/svg"><path d="m64 4.75a59.25 59.25 0 1 0 59.25 59.25 59.317 59.317 0 0 0 -59.25-59.25zm0 115a55.75 55.75 0 1 1 55.75-55.75 55.813 55.813 0 0 1 -55.75 55.75z" fill="#d67b35" data-original="#000000" style="" class=""/><path d="m64 13.75a50.25 50.25 0 1 0 50.25 50.25 50.307 50.307 0 0 0 -50.25-50.25zm0 97a46.75 46.75 0 1 1 46.75-46.75 46.8 46.8 0 0 1 -46.75 46.75z" fill="#d67b35" data-original="#000000" style="" class=""/><path d="m81.125 27.025a41 41 0 0 1 6.98 4.138 1.75 1.75 0 1 0 2.075-2.818 44.4 44.4 0 0 0 -7.58-4.493 1.75 1.75 0 1 0 -1.476 3.173z" fill="#d67b35" data-original="#000000" style="" class=""/><path d="m82.283 46.031c-8.523 0-14.733 5.705-18.283 10.169-3.55-4.459-9.76-10.164-18.283-10.164a17.969 17.969 0 0 0 0 35.938c8.523 0 14.733-5.7 18.283-10.164 3.55 4.459 9.76 10.164 18.283 10.164a17.969 17.969 0 0 0 0-35.938zm0 32.438c-8.232 0-14.089-6.636-16.847-10.592a1.751 1.751 0 0 0 -2.872 0c-2.758 3.956-8.615 10.592-16.847 10.592a14.469 14.469 0 0 1 0-28.938c8.232 0 14.089 6.636 16.847 10.592a1.815 1.815 0 0 0 2.872 0c2.758-3.956 8.615-10.592 16.847-10.592a14.469 14.469 0 0 1 0 28.938z" fill="#d67b35" data-original="#000000" style="" class=""/><path d="m82.283 55.031c-5.614 0-10.012 4.982-12.134 7.951a1.751 1.751 0 0 0 0 2.036c2.122 2.969 6.52 7.951 12.134 7.951a8.969 8.969 0 0 0 0-17.938zm0 14.438c-3.52 0-6.632-3.074-8.522-5.469 1.89-2.4 5-5.469 8.522-5.469a5.469 5.469 0 0 1 0 10.938z" fill="#d67b35" data-original="#000000" style="" class=""/><path d="m45.717 55.031a8.969 8.969 0 0 0 0 17.938c5.614 0 10.012-4.982 12.134-7.951a1.751 1.751 0 0 0 0-2.036c-2.122-2.969-6.52-7.951-12.134-7.951zm0 14.438a5.469 5.469 0 0 1 0-10.938c3.52 0 6.632 3.074 8.522 5.469-1.89 2.4-5.002 5.469-8.522 5.469z" fill="#d67b35" data-original="#000000" style="" class=""/></g></g></svg>
