<?xml version="1.0"?>
<svg xmlns="http://www.w3.org/2000/svg" xmlns:xlink="http://www.w3.org/1999/xlink" xmlns:svgjs="http://svgjs.com/svgjs" version="1.1" width="512" height="512" x="0" y="0" viewBox="0 0 481 481.1415" style="enable-background:new 0 0 512 512" xml:space="preserve" class=""><g><path xmlns="http://www.w3.org/2000/svg" d="m425.40625 438.234375-36.0625-16.28125c.984375-10.585937-5.210938-20.53125-15.144531-24.320313l1.503906-48.246093c3.613281-1.128907 6.90625-3.105469 9.601563-5.769531 9.371093-9.371094 9.371093-24.570313 0-33.941407-9.375-9.375-24.574219-9.375-33.945313 0-2.386719 2.398438-4.230469 5.277344-5.417969 8.445313l-39.773437-.796875c-2.390625-7.507813-8.351563-13.335938-15.910157-15.554688-7.554687-2.222656-15.722656-.550781-21.796874 4.464844l-23.269532-14.289063c1.851563-8.652343-1.21875-17.617187-7.984375-23.320312s-16.121093-7.214844-24.335937-3.925781l-29.601563-33.882813c2.152344-8.144531-.230469-16.816406-6.246093-22.71875-9.5-9.0625-24.445313-9.0625-33.945313 0-.414063.417969-.726563.90625-1.101563 1.351563l-58.21875-12.726563c-.625-5.261718-2.992187-10.160156-6.726562-13.921875-1.378906-1.335937-2.925781-2.492187-4.601562-3.4375l13.066406-62.890625c9.351562-1.144531 17.097656-7.804687 19.628906-16.878906l35.5625-1.863281c3.21875 8.484375 10.949219 14.429687 19.976562 15.359375 9.03125.929687 17.808594-3.3125 22.691407-10.960938 4.882812-7.652344 5.03125-17.402344.386719-25.199218l26.730468-30.335938c8.90625 3.570312 19.085938 1.484375 25.878906-5.296875 8.921876-8.75 9.671876-22.871094 1.726563-32.519531-7.945313-9.648438-21.949219-11.617188-32.246094-4.539063-10.300781 7.078125-13.480469 20.855469-7.320312 31.730469l-26.746094 30.304688c-8.90625-3.5625-19.082031-1.480469-25.871094 5.296874-2.800781 2.835938-4.84375 6.335938-5.9375 10.167969l-35.589843 1.863281c-1.195313-2.910156-2.953126-5.554687-5.175782-7.785156-9.375-9.371094-24.570312-9.371094-33.945312 0-9.375 9.375-9.375 24.574219 0 33.945313 1.375 1.34375 2.910156 2.515625 4.570312 3.488281l-13.105468 63.039062c-5.125.609376-9.902344 2.890626-13.601563 6.488282-6.597656 6.515625-8.855469 16.25-5.792969 25.003906 3.058594 8.75 10.890625 14.957031 20.109375 15.941406 9.222657.984375 18.183594-3.433594 23.019531-11.34375l55.6875 12.175782c0 .175781-.046874.34375-.046874.519531-.023438 9 5.003906 17.253906 13.011718 21.363281 8.011719 4.105469 17.648438 3.367188 24.941406-1.90625l26.886719 30.773438c-5.71875 9.996093-3.476562 22.648437 5.324219 30.074218 8.804688 7.421875 21.652344 7.496094 30.539062.175782l23.28125 14.230468c-1.746093 8.085938.835938 16.496094 6.816407 22.210938l-9.601563 21.199218c-7.03125-.652343-13.992187 1.847657-19.007812 6.824219-8.179688 8.125-9.40625 20.929688-2.925782 30.464844 6.484376 9.535156 18.839844 13.101563 29.40625 8.484375l20.199219 21.699219c-4.632812 8.84375-3.289062 19.632812 3.367188 27.074219 6.65625 7.441406 17.230469 9.96875 26.535156 6.347656 9.300781-3.625 15.382813-12.640625 15.25-22.625l17.035156-6.207032c.476563.585938.886719 1.199219 1.421875 1.746094 9.386719 9.347656 24.566406 9.347656 33.953125 0 .109375-.121094.191407-.257812.3125-.378906l33.847657 15.28125c-2.515626 11.246094 3.320312 22.695312 13.902343 27.265625 10.578125 4.574219 22.914063.980469 29.382813-8.558594 6.46875-9.539062 5.242187-22.328125-2.917969-30.46875-8.675781-8.253906-22.035156-9.0625-31.640625-1.910156zm-211.664062-419.566406c2.695312-2.703125 6.925781-3.125 10.101562-1.007813 3.175781 2.117188 4.414062 6.183594 2.957031 9.710938s-5.203125 5.535156-8.949219 4.792968c-3.742187-.742187-6.441406-4.023437-6.445312-7.839843 0-2.121094.839844-4.15625 2.335938-5.65625zm-56.503907 64.230469c2.675781-2.816407 6.957031-3.371094 10.261719-1.328126 3.304688 2.039063 4.726562 6.117188 3.410156 9.769532-1.320312 3.652344-5.015625 5.882812-8.863281 5.339844-3.84375-.539063-6.785156-3.699219-7.046875-7.574219 0 0 0-.078125 0-.128907 0-.046874-.105469-.300781-.121094-.460937.003906-2.113281.855469-4.136719 2.359375-5.617187zm-80.65625 4.246093c3.125-3.125 8.191407-3.125 11.316407 0s3.125 8.191407 0 11.316407c-3.125 3.121093-8.191407 3.121093-11.316407-.003907-3.121093-3.121093-3.121093-8.1875 0-11.3125zm-10.855469 118.28125c-3.160156 3.03125-8.148437 3.03125-11.3125 0-3.117187-3.121093-3.117187-8.179687 0-11.304687 2.007813-2.078125 4.984376-2.914063 7.78125-2.179688 2.796876.730469 4.980469 2.914063 5.714844 5.710938.730469 2.800781-.105468 5.773437-2.183594 7.78125zm100 25.296875c-3.164062 3.023438-8.148437 3.023438-11.3125 0-3.121093-3.125-3.121093-8.1875 0-11.3125 2.007813-2.078125 4.984376-2.914062 7.78125-2.179687 2.796876.730469 4.980469 2.914062 5.714844 5.710937.730469 2.796875-.105468 5.773438-2.183594 7.78125zm61.679688 61.925782c-3.125 3.125-8.1875 3.128906-11.3125.003906s-3.125-8.191406 0-11.316406c3.125-3.121094 8.1875-3.121094 11.3125.003906 3.125 3.121094 3.125 8.1875 0 11.308594zm33.488281 100h-.0625c-.066406.066406-.152343.074218-.226562.136718-2.914063 2.699219-7.367188 2.851563-10.457031.355469-3.09375-2.492187-3.886719-6.878906-1.863282-10.296875 2.023438-3.417969 6.246094-4.835938 9.921875-3.328125.121094.054687.191407.167969.320313.222656h.070312c.84375.367188 1.617188.882813 2.28125 1.519531 1.519532 1.503907 2.375 3.554688 2.375 5.695313-.003906 2.136719-.859375 4.1875-2.382812 5.6875zm22.625-75.878907c4.417969 0 8 3.582031 8 8s-3.582031 8-8 8-8-3.582031-8-8c-.003906-2.121093.839844-4.160156 2.339844-5.660156 1.5-1.503906 3.535156-2.347656 5.660156-2.347656zm28.277344 130.5625c-3.121094 3.125-8.1875 3.125-11.3125 0s-3.125-8.191406 0-11.316406c3.125-3.121094 8.191406-3.121094 11.3125.003906.761719.753907 1.359375 1.652344 1.753906 2.648438v.261719.039062c1.074219 2.890625.390625 6.140625-1.753906 8.355469zm36.800781-44.304687c-4.511718 4.488281-7.042968 10.601562-7.023437 16.96875v.238281l-17.039063 6.199219c-.441406-.601563-.914062-1.175782-1.417968-1.726563-6.964844-6.9375-17.457032-8.925781-26.476563-5.015625l-20.226563-21.664062c4.839844-9.253906 3.136719-20.578125-4.207031-28-.105469-.105469-.230469-.167969-.335937-.273438l9.601562-21.183594c.6875.054688 1.351563.207032 2.054688.207032 9.953125-.015625 18.867187-6.171875 22.398437-15.480469l39.800781.800781c2.136719 6.851563 7.308594 12.339844 14.023438 14.871094l-1.503906 48.25c-3.613282 1.132812-6.902344 3.109375-9.597656 5.769531zm22.632813 22.621094c-2.007813 2.082031-4.984375 2.914062-7.78125 2.183593s-4.980469-2.917969-5.710938-5.714843c-.734375-2.796876.101563-5.769532 2.179688-7.777344 3.140625-3.035156 8.128906-2.988282 11.214843.097656 3.085938 3.085938 3.128907 8.074219.097657 11.210938zm-2.855469-90.980469c-.070312 0-.136719-.050781-.214844-.058594-3.191406-.070313-6.027344-2.042969-7.210937-5.007813-1.179688-2.964843-.472657-6.347656 1.792969-8.589843 2.558593-2.5625 6.519531-3.085938 9.65625-1.273438 3.136718 1.808594 4.664062 5.496094 3.730468 8.996094-.933594 3.496094-4.101562 5.929687-7.722656 5.933594zm77.351562 128.078125c-3.164062 3.027344-8.148437 3.027344-11.3125 0-3.121093-3.125-3.121093-8.1875 0-11.3125 2.007813-2.078125 4.984376-2.914063 7.78125-2.179688 2.796876.730469 4.980469 2.914063 5.714844 5.710938.730469 2.796875-.105468 5.773437-2.183594 7.78125zm0 0" fill="#d67b35" data-original="#000000" style=""/><path xmlns="http://www.w3.org/2000/svg" d="m86.414062 352.089844c-9.371093 9.375-9.371093 24.570312.003907 33.941406 9.371093 9.371094 24.566406 9.371094 33.9375 0 9.375-9.371094 9.375-24.566406.003906-33.941406-4.480469-4.542969-10.59375-7.101563-16.972656-7.101563-6.382813.003907-12.496094 2.5625-16.972657 7.109375zm22.632813 11.320312c3.121094 3.125 3.121094 8.1875-.003906 11.3125-3.125 3.121094-8.1875 3.121094-11.3125 0-3.125-3.125-3.125-8.1875-.003907-11.3125 1.5-1.503906 3.535157-2.347656 5.660157-2.347656s4.160156.84375 5.660156 2.347656zm0 0" fill="#d67b35" data-original="#000000" style=""/><path xmlns="http://www.w3.org/2000/svg" d="m250.75 134.042969c-6.085938 11.773437-1.476562 26.253906 10.296875 32.339843 11.773437 6.089844 26.253906 1.480469 32.339844-10.292968 6.089843-11.773438 1.480469-26.253906-10.292969-32.34375s-26.253906-1.480469-32.34375 10.296875zm28.425781 14.695312c-2.027343 3.925781-6.855469 5.464844-10.78125 3.4375-3.925781-2.03125-5.464843-6.855469-3.433593-10.78125 2.027343-3.925781 6.855468-5.460937 10.78125-3.433593 3.921874 2.03125 5.457031 6.855468 3.433593 10.777343zm0 0" fill="#d67b35" data-original="#000000" style=""/><path xmlns="http://www.w3.org/2000/svg" d="m408.070312 65.066406h16v16h-16zm0 0" fill="#d67b35" data-original="#000000" style=""/><path xmlns="http://www.w3.org/2000/svg" d="m408.070312 97.066406h16v16h-16zm0 0" fill="#d67b35" data-original="#000000" style=""/><path xmlns="http://www.w3.org/2000/svg" d="m392.070312 81.066406h16v16h-16zm0 0" fill="#d67b35" data-original="#000000" style=""/><path xmlns="http://www.w3.org/2000/svg" d="m424.070312 81.066406h16v16h-16zm0 0" fill="#d67b35" data-original="#000000" style=""/><path xmlns="http://www.w3.org/2000/svg" d="m80.070312 265.066406h16v16h-16zm0 0" fill="#d67b35" data-original="#000000" style=""/><path xmlns="http://www.w3.org/2000/svg" d="m80.070312 297.066406h16v16h-16zm0 0" fill="#d67b35" data-original="#000000" style=""/><path xmlns="http://www.w3.org/2000/svg" d="m64.070312 281.066406h16v16h-16zm0 0" fill="#d67b35" data-original="#000000" style=""/><path xmlns="http://www.w3.org/2000/svg" d="m96.070312 281.066406h16v16h-16zm0 0" fill="#d67b35" data-original="#000000" style=""/><path xmlns="http://www.w3.org/2000/svg" d="m320.070312 17.066406h16v16h-16zm0 0" fill="#d67b35" data-original="#000000" style=""/><path xmlns="http://www.w3.org/2000/svg" d="m320.070312 65.066406h16v16h-16zm0 0" fill="#d67b35" data-original="#000000" style=""/><path xmlns="http://www.w3.org/2000/svg" d="m296.070312 41.066406h16v16h-16zm0 0" fill="#d67b35" data-original="#000000" style=""/><path xmlns="http://www.w3.org/2000/svg" d="m344.070312 41.066406h16v16h-16zm0 0" fill="#d67b35" data-original="#000000" style=""/><path xmlns="http://www.w3.org/2000/svg" d="m408.070312 193.066406h16v16h-16zm0 0" fill="#d67b35" data-original="#000000" style=""/><path xmlns="http://www.w3.org/2000/svg" d="m408.070312 241.066406h16v16h-16zm0 0" fill="#d67b35" data-original="#000000" style=""/><path xmlns="http://www.w3.org/2000/svg" d="m384.070312 217.066406h16v16h-16zm0 0" fill="#d67b35" data-original="#000000" style=""/><path xmlns="http://www.w3.org/2000/svg" d="m432.070312 217.066406h16v16h-16zm0 0" fill="#d67b35" data-original="#000000" style=""/><path xmlns="http://www.w3.org/2000/svg" d="m24.070312 393.066406h16v16h-16zm0 0" fill="#d67b35" data-original="#000000" style=""/><path xmlns="http://www.w3.org/2000/svg" d="m24.070312 441.066406h16v16h-16zm0 0" fill="#d67b35" data-original="#000000" style=""/><path xmlns="http://www.w3.org/2000/svg" d="m.0703125 417.066406h15.9999995v16h-15.9999995zm0 0" fill="#d67b35" data-original="#000000" style=""/><path xmlns="http://www.w3.org/2000/svg" d="m48.070312 417.066406h16v16h-16zm0 0" fill="#d67b35" data-original="#000000" style=""/><path xmlns="http://www.w3.org/2000/svg" d="m168.910156 468.640625c1.355469 2.71875 4.125 4.433594 7.160156 4.433594 3.035157 0 5.808594-1.714844 7.160157-4.433594 4.441406-8.808594 11.597656-15.953125 20.417969-20.375 2.714843-1.351563 4.429687-4.125 4.429687-7.160156 0-3.03125-1.714844-5.804688-4.429687-7.160157-8.816407-4.449218-15.960938-11.621093-20.378907-20.453124-1.503906-2.523438-4.222656-4.070313-7.160156-4.070313-2.933594 0-5.65625 1.546875-7.160156 4.070313-4.429688 8.820312-11.589844 15.980468-20.414063 20.414062-2.714844 1.351562-4.433594 4.125-4.433594 7.160156s1.71875 5.804688 4.433594 7.160156c8.808594 4.4375 15.953125 11.597657 20.375 20.414063zm7.160156-36.886719c2.769532 3.421875 5.890626 6.546875 9.3125 9.3125-3.421874 2.765625-6.542968 5.886719-9.3125 9.3125-2.765624-3.425781-5.886718-6.546875-9.3125-9.3125 3.425782-2.765625 6.546876-5.890625 9.3125-9.3125zm0 0" fill="#d67b35" data-original="#000000" style=""/><path xmlns="http://www.w3.org/2000/svg" d="m292.496094 248.265625c8.824218 4.433594 15.980468 11.59375 20.414062 20.417969 1.355469 2.714844 4.125 4.429687 7.160156 4.429687 3.035157 0 5.808594-1.714843 7.160157-4.429687 4.433593-8.824219 11.59375-15.984375 20.417969-20.417969 2.714843-1.351563 4.429687-4.125 4.429687-7.160156 0-3.03125-1.714844-5.804688-4.429687-7.160157-8.816407-4.449218-15.960938-11.621093-20.378907-20.453124-1.503906-2.523438-4.222656-4.070313-7.160156-4.070313-2.933594 0-5.65625 1.546875-7.160156 4.070313-4.429688 8.820312-11.589844 15.980468-20.414063 20.414062-2.714844 1.351562-4.433594 4.125-4.433594 7.160156s1.71875 5.804688 4.433594 7.160156zm27.574218-16.511719c2.769532 3.421875 5.890626 6.546875 9.3125 9.3125-3.421874 2.765625-6.542968 5.886719-9.3125 9.3125-2.765624-3.425781-5.886718-6.546875-9.3125-9.3125 3.425782-2.765625 6.546876-5.890625 9.3125-9.3125zm0 0" fill="#d67b35" data-original="#000000" style=""/></g></svg>
