<?xml version="1.0"?>
<svg xmlns="http://www.w3.org/2000/svg" xmlns:xlink="http://www.w3.org/1999/xlink" xmlns:svgjs="http://svgjs.com/svgjs" version="1.1" width="512" height="512" x="0" y="0" viewBox="0 0 512 512" style="enable-background:new 0 0 512 512" xml:space="preserve" class=""><g><g xmlns="http://www.w3.org/2000/svg"><path d="m286 411h-15v-15c0-8.284-6.716-15-15-15s-15 6.716-15 15v15h-15c-8.284 0-15 6.716-15 15s6.716 15 15 15h15v15c0 8.284 6.716 15 15 15s15-6.716 15-15v-15h15c8.284 0 15-6.716 15-15s-6.716-15-15-15z" fill="#d67b35" data-original="#000000" style="" class=""/><path d="m426 101h15v15c0 8.284 6.716 15 15 15s15-6.716 15-15v-15h15c8.284 0 15-6.716 15-15s-6.716-15-15-15h-15v-15c0-8.284-6.716-15-15-15s-15 6.716-15 15v15h-15c-8.284 0-15 6.716-15 15s6.716 15 15 15z" fill="#d67b35" data-original="#000000" style="" class=""/><circle cx="166" cy="346" r="15" fill="#d67b35" data-original="#000000" style="" class=""/><circle cx="366" cy="176" r="15" fill="#d67b35" data-original="#000000" style="" class=""/><path d="m467 381c-3.331 0-6.575.375-9.702 1.065l-36.148-58.015c6.156-7.699 9.85-17.449 9.85-28.05 0-24.813-20.186-45-45-45-10.691 0-20.518 3.754-28.247 10.005l-57.762-35.546c.656-3.052 1.009-6.214 1.009-9.459 0-24.813-20.186-45-45-45-.411 0-.817.02-1.225.031l-19.557-50.849c9.649-8.259 15.782-20.514 15.782-34.182 0-24.813-20.186-45-45-45-24.228 0-44.034 19.249-44.956 43.255l-79.993 24.842c-8.213-10.978-21.316-18.097-36.051-18.097-24.813 0-45 20.187-45 45 0 24.294 19.354 44.14 43.451 44.961l15.488 49.111c-10.887 8.22-17.939 21.265-17.939 35.928 0 24.813 20.187 45 45 45 24.002 0 43.671-18.888 44.933-42.58l88.624-26.066c8.185 11.286 21.467 18.646 36.443 18.646 10.691 0 20.518-3.754 28.247-10.005l57.762 35.546c-.656 3.052-1.009 6.214-1.009 9.459 0 24.813 20.186 45 45 45 3.331 0 6.575-.375 9.702-1.065l36.148 58.015c-6.156 7.699-9.85 17.449-9.85 28.05 0 24.813 20.186 45 45 45s45-20.187 45-45-20.186-45-45-45zm-261-310c8.271 0 15 6.729 15 15s-6.729 15-15 15-15-6.729-15-15 6.729-15 15-15zm-161 80c-8.271 0-15-6.729-15-15s6.729-15 15-15 15 6.729 15 15-6.729 15-15 15zm41 130c-8.271 0-15-6.729-15-15s6.729-15 15-15 15 6.729 15 15-6.729 15-15 15zm125.067-67.42-88.624 26.066c-7.901-10.895-20.554-18.119-34.894-18.607l-15.489-49.111c10.453-7.893 17.36-20.234 17.896-34.183l79.993-24.843c8.213 10.979 21.316 18.098 36.051 18.098.411 0 .817-.02 1.225-.031l19.557 50.849c-9.076 7.769-15.039 19.072-15.715 31.762zm44.933 17.42c-8.271 0-15-6.729-15-15s6.729-15 15-15c8.272 0 15 6.729 15 15s-6.728 15-15 15zm130 80c-8.272 0-15-6.729-15-15s6.728-15 15-15 15 6.729 15 15-6.728 15-15 15zm81 130c-8.272 0-15-6.729-15-15s6.728-15 15-15 15 6.729 15 15-6.728 15-15 15z" fill="#d67b35" data-original="#000000" style="" class=""/></g></g></svg>
