<svg xmlns="http://www.w3.org/2000/svg" width="477.964" height="492.044" viewBox="0 0 477.964 492.044">
  <g id="ouroboros" transform="translate(-17.041 -9.991)">
    <path id="Path_38" data-name="Path 38" d="M158.542,48.172a7.15,7.15,0,1,0-7.112-6.421,7.15,7.15,0,0,0,7.112,6.421Z" fill="#d67b35"/>
    <path id="Path_39" data-name="Path 39" d="M129.466,465.67a237.156,237.156,0,0,0,126.047,36.365,240.531,240.531,0,0,0,54.049-6.184,237.48,237.48,0,0,0,149.17-106.18c33.77-54.078,44.426-118.272,30.006-180.754C475.06,149.646,442.416,97.706,396.82,62.666,348.434,25.479,288.706,9.4,223.608,15.918q-.14-.3-.307-.6a7.885,7.885,0,0,0-5.844-3.914C137.6,1.331,114.843,47.7,108.768,68.1a27.714,27.714,0,0,1-8.458,13.138A239.4,239.4,0,0,0,129.466,465.67ZM32.231,224.326l6.154,1.392a6,6,0,1,0,2.647-11.7l-6.468-1.463a226.429,226.429,0,0,1,23.708-61.494l4.989,2.3a6,6,0,1,0,5.016-10.9l-3.794-1.745a228.357,228.357,0,0,1,43.656-50.377,39.687,39.687,0,0,0,12.13-18.808,66.583,66.583,0,0,1,23.006-34C156.706,27.19,174.414,22,196.09,22q6,0,12.408.531a73,73,0,0,1-18.989,15.815c-10.434,6.045-18.943,14.65-24.244,20.8a7.978,7.978,0,0,0,8.042,12.923l36.214-9.325a230.377,230.377,0,0,1-47.97,30.386,125.846,125.846,0,0,0-29.545,19.287,191.049,191.049,0,0,0-52.846,75l-8-3.6a6,6,0,0,0-4.923,10.944l8.9,4a190.824,190.824,0,0,0-4.55,99.1c.816,3.7,1.748,7.361,2.771,10.98l-7.623,1.375a6,6,0,0,0,2.129,11.81L77,320.379a188.924,188.924,0,0,0,64.059,87.863l-6.851,9.747,4.9,9.451a5.993,5.993,0,0,0,4.914-2.55l6.792-9.665q2.141,1.433,4.324,2.817A189.311,189.311,0,0,0,265.575,447.5l-.667,12.675a6,6,0,0,0,5.677,6.308c.107,0,.214.007.32.007a6,6,0,0,0,5.988-5.684l.75-14.262a192.019,192.019,0,0,0,71.9-22.886l5.813,7.413a6,6,0,1,0,9.445-7.4l-4.868-6.206a190.108,190.108,0,0,0,58.555-59.519c.2-.321.389-.645.587-.966l7.99,4.1a6,6,0,1,0,5.473-10.679l-7.479-3.834A189.26,189.26,0,0,0,446.146,234.4l7.71-2.209a6,6,0,1,0-3.306-11.535l-6.213,1.78q-.816-4.436-1.837-8.859a212.843,212.843,0,0,0-47.2-91.7l3.882-4.541a6,6,0,1,0-9.121-7.8L387.093,113a212.477,212.477,0,0,0-99.961-57.488l1.223-4.577a6,6,0,0,0-11.593-3.1l-1.347,5.04A240.188,240.188,0,0,0,216.642,48.8a10.419,10.419,0,0,0-2.611.392l-29.646,7.635a71.907,71.907,0,0,1,11.14-8.1,85.025,85.025,0,0,0,23.624-20.243q11.649-1.4,23.05-1.8v8.6a6,6,0,0,0,12,0V26.526a233.027,233.027,0,0,1,71.784,11.8l-2.8,6.538a6,6,0,0,0,11.033,4.721l3.052-7.131a216.472,216.472,0,0,1,42.193,22.459l-5.11,6.288a6,6,0,0,0,9.312,7.569l5.54-6.816c.1.077.2.15.3.226a230.531,230.531,0,0,1,45.791,47.2l-4.964,4.011a6,6,0,0,0,7.543,9.333l4.262-3.444a251.188,251.188,0,0,1,24.675,48.613l-7.5,2.219a6,6,0,1,0,3.4,11.508l8.091-2.395q3.587,10.984,6.235,22.39a231.55,231.55,0,0,1,5.751,42.692l-6.736.532a6,6,0,0,0,.465,11.981q.239,0,.48-.018l5.968-.471a224.786,224.786,0,0,1-8.934,60.117l-5.255-2.431a6,6,0,1,0-5.039,10.89l6.612,3.06a229.36,229.36,0,0,1-38,68.084l-6.431-4.809a6,6,0,0,0-7.186,9.612l5.806,4.341a225.1,225.1,0,0,1-101.462,64.6l-2.235-6.276a6,6,0,0,0-11.3,4.025l1.953,5.484c-1.539.388-3.081.77-4.632,1.127a226.972,226.972,0,0,1-72.635,4.855l.559-9.147a6,6,0,1,0-11.978-.732l-.514,8.41a224.755,224.755,0,0,1-59.03-17.39l4.852-9.507a6,6,0,0,0-10.688-5.456l-4.975,9.747q-8.458-4.359-16.632-9.444a228.963,228.963,0,0,1-37.652-29.386l6.082-7.515a6,6,0,1,0-9.327-7.549L89.706,417.5a224.357,224.357,0,0,1-35.652-50.869l8.3-3.3a6,6,0,0,0-4.436-11.15l-9.036,3.6a230.168,230.168,0,0,1-18.019-64.308l6.286-1.078a6,6,0,0,0-2.029-11.828l-5.476.939a226.985,226.985,0,0,1,2.587-55.18Zm170.253-.636a48.762,48.762,0,1,0,85.35-.426q28.325,10.423,58.6,33.84c-25.515,19.518-51.144,32.085-76.273,37.39a127.8,127.8,0,0,1-62.991-2.157,135.6,135.6,0,0,1-52.489-29.611c5.969-8.226,22.06-27.657,47.8-39.036Zm-38.531,10.931,23.074-41.311v24.663a130.065,130.065,0,0,0-23.074,16.648Zm35.074-22.553V171.826l14.137-25.311,2.038,60.071a114.813,114.813,0,0,0-16.175,5.482Zm83.517-3.21a139.575,139.575,0,0,0-25.668-5.234l.54-116.052,25.344,43.473Zm11.989,4.112.171-61.439,16.667,28.59.936,40.817a191.232,191.232,0,0,0-17.774-7.968Zm29.332-11.418,24.447,41.933a274,274,0,0,0-23.85-15.883Zm-36.411,100.78a179.037,179.037,0,0,0,18.317-6.881l21.3,46.71-25.129-.254Zm1.659,39.445-32.263-.326V308.7a148.579,148.579,0,0,0,15.395-2.379c1.2-.249,2.393-.537,3.59-.816Zm27.5-51.474q7.249-3.71,14.5-8.14l32.823,60.37-23.612-.239ZM244.85,309.4v31.93l-27.128-.274,11.8-32.268c4.334.413,8.689.64,13.066.64.751,0,1.512-.017,2.262-.028Zm-48.066-7.807c2.092.733,4.233,1.435,6.434,2.09a138.737,138.737,0,0,0,14.144,3.412l-12.37,33.834-26-.262Zm-30.92,38.941-24.353-.246,28-51.557a148.418,148.418,0,0,0,16.114,8.418ZM159.455,282.1,127.93,340.149l-22.791-.23,39.3-70.365A127.6,127.6,0,0,0,159.455,282.1Zm246.674,72.86a177.728,177.728,0,0,1-57.678,55.471,5.88,5.88,0,0,0-.846.5,178.816,178.816,0,0,1-242.131-59.009Zm-28.464-12.288L341.22,275.64q9.043-6.139,18.05-13.358L406.3,342.961ZM256.7,62.521a5.107,5.107,0,0,0-.34-.5c38.606,4.532,73.9,18.977,103.616,42.634a202.411,202.411,0,0,1,22.963,21.41l.049.054a200.979,200.979,0,0,1,47.819,90.166A177.706,177.706,0,0,1,416.6,336.794Zm10.173,154.77a36.754,36.754,0,1,1-42.567-.45c.575-.112,1.142-.234,1.724-.337a109.722,109.722,0,0,1,40.846.787Zm-42.392-91.042,20.927-37.466-.532,114.173a116.627,116.627,0,0,0-17.752,1.229Zm21.8-63.632L95.186,333.13A179.262,179.262,0,0,1,139.9,121.46a113.894,113.894,0,0,1,26.751-17.466,242.287,242.287,0,0,0,56.875-37.426,10.225,10.225,0,0,0,3.357-6.089q10.416-.121,20.57.673a5.961,5.961,0,0,0-1.172,1.465Z" fill="#d67b35"/>
    <path id="Path_40" data-name="Path 40" d="M221.142,244.474A24.2,24.2,0,0,0,243.764,270.1q.762.047,1.522.047a24.168,24.168,0,1,0-24.144-25.669Zm11.976.738a12.166,12.166,0,0,1,12.117-11.429q.382,0,.766.024a12.185,12.185,0,0,1,7.3,21.285,12.053,12.053,0,0,1-8.8,3.027,12.185,12.185,0,0,1-11.383-12.907Z" fill="#d67b35"/>
  </g>
</svg>
