<?xml version="1.0"?>
<svg xmlns="http://www.w3.org/2000/svg" xmlns:xlink="http://www.w3.org/1999/xlink" xmlns:svgjs="http://svgjs.com/svgjs" version="1.1" width="512" height="512" x="0" y="0" viewBox="0 0 512 512.00078" style="enable-background:new 0 0 512 512" xml:space="preserve" class=""><g>
<g xmlns="http://www.w3.org/2000/svg" id="surface1">
<path d="M 323.765625 331.261719 C 338.875 331.261719 351.097656 319.035156 351.097656 303.925781 C 351.097656 288.816406 338.875 276.589844 323.765625 276.589844 C 308.652344 276.589844 296.429688 288.816406 296.429688 303.925781 C 296.425781 319.035156 308.769531 331.261719 323.765625 331.261719 Z M 323.765625 331.261719 " style="" fill="#d67b35" data-original="#000000" class=""/>
<path d="M 332.992188 374.859375 L 314.535156 374.859375 C 289.96875 374.859375 269.898438 394.46875 269.898438 419.148438 L 269.898438 463.671875 L 377.167969 463.671875 L 377.167969 419.148438 C 377.167969 394.46875 357.675781 374.859375 332.992188 374.859375 Z M 332.992188 374.859375 " style="" fill="#d67b35" data-original="#000000" class=""/>
<path d="M 323.992188 236.335938 C 247.984375 236.335938 186.160156 298.15625 186.160156 374.167969 C 186.160156 450.175781 247.984375 512 323.992188 512 C 400.003906 512 461.828125 450.175781 461.828125 374.167969 C 461.828125 298.15625 400.003906 236.335938 323.992188 236.335938 Z M 323.765625 258.132812 C 349.023438 258.132812 369.554688 278.664062 369.554688 303.925781 C 369.554688 329.183594 349.023438 349.714844 323.765625 349.714844 C 298.503906 349.714844 277.972656 329.183594 277.972656 303.925781 C 277.972656 278.664062 298.503906 258.132812 323.765625 258.132812 Z M 395.621094 472.4375 C 395.621094 477.515625 392.046875 482.128906 386.855469 482.128906 L 260.671875 482.128906 C 255.597656 482.128906 251.445312 477.628906 251.445312 472.4375 L 251.445312 419.152344 C 251.445312 384.316406 279.703125 356.40625 314.535156 356.40625 L 332.992188 356.40625 C 367.824219 356.40625 395.621094 384.316406 395.621094 419.152344 Z M 395.621094 472.4375 " style="" fill="#d67b35" data-original="#000000" class=""/>
<path d="M 172.667969 334.488281 L 72.433594 334.488281 C 67.359375 334.488281 63.207031 330.339844 63.207031 325.261719 C 63.207031 320.1875 67.359375 316.035156 72.433594 316.035156 L 178.78125 316.035156 C 184.660156 301.042969 192.503906 288.351562 202.195312 275.664062 L 72.433594 275.664062 C 67.359375 275.664062 63.207031 271.515625 63.207031 266.4375 C 63.207031 261.363281 67.359375 257.210938 72.433594 257.210938 L 219.726562 257.210938 C 247.40625 232.988281 284.085938 217.535156 324.109375 217.535156 C 327.914062 217.535156 331.03125 217.878906 335.644531 218.226562 L 335.644531 123.414062 L 266.4375 123.414062 C 239.679688 123.414062 217.996094 101.5 217.996094 74.855469 L 217.996094 0 L 41.0625 0 C 18.222656 0 0 18.683594 0 41.636719 L 0 393.660156 C 0 416.613281 18.222656 434.835938 41.0625 434.835938 L 180.046875 434.835938 C 172.089844 416.382812 167.707031 395.621094 167.707031 373.9375 C 167.589844 360.328125 169.4375 347.175781 172.667969 334.488281 Z M 72.433594 199.539062 L 189.277344 199.539062 C 194.351562 199.539062 198.503906 203.691406 198.503906 208.769531 C 198.503906 213.84375 194.351562 217.996094 189.277344 217.996094 L 72.433594 217.996094 C 67.359375 217.996094 63.207031 213.84375 63.207031 208.769531 C 63.207031 203.691406 67.359375 199.539062 72.433594 199.539062 Z M 72.433594 199.539062 " style="" fill="#d67b35" data-original="#000000" class=""/>
<path d="M 266.4375 104.960938 L 322.957031 104.960938 L 236.449219 13.957031 L 236.449219 74.855469 C 236.449219 91.351562 249.828125 104.960938 266.4375 104.960938 Z M 266.4375 104.960938 " style="" fill="#d67b35" data-original="#000000" class=""/>
</g>
</g></svg>
