<svg xmlns="http://www.w3.org/2000/svg" width="512.001" height="481.199" viewBox="0 0 512.001 481.199">
  <g id="tarot" transform="translate(0 -15.401)">
    <g id="Group_2" data-name="Group 2">
      <g id="Group_1" data-name="Group 1">
        <path id="Path_3" data-name="Path 3" d="M467.091,15.4h-35.8a7.61,7.61,0,0,0,0,15.22h35.8a29.724,29.724,0,0,1,29.69,29.69v304.8a29.724,29.724,0,0,1-29.69,29.69H257.108a29.723,29.723,0,0,1-29.69-29.69V60.311a29.724,29.724,0,0,1,29.69-29.69H405.921a7.61,7.61,0,0,0,0-15.22H257.108a44.96,44.96,0,0,0-44.91,44.91v304.8a44.96,44.96,0,0,0,44.91,44.91H467.091A44.96,44.96,0,0,0,512,365.109V60.311A44.961,44.961,0,0,0,467.091,15.4Z" fill="#d67b35"/>
      </g>
    </g>
    <g id="Group_4" data-name="Group 4">
      <g id="Group_3" data-name="Group 3">
        <path id="Path_4" data-name="Path 4" d="M195.089,101.982H44.91A44.96,44.96,0,0,0,0,146.892V347.379a7.61,7.61,0,0,0,15.22,0V146.892A29.723,29.723,0,0,1,44.911,117.2H195.09a7.61,7.61,0,1,0,0-15.22Z" fill="#d67b35"/>
      </g>
    </g>
    <g id="Group_6" data-name="Group 6">
      <g id="Group_5" data-name="Group 5">
        <path id="Path_5" data-name="Path 5" d="M292.193,419.489a7.61,7.61,0,0,0-7.61,7.61V451.69a29.723,29.723,0,0,1-29.69,29.69H44.91a29.725,29.725,0,0,1-29.691-29.69V372.746a7.609,7.609,0,1,0-15.219,0V451.69A44.96,44.96,0,0,0,44.91,496.6H254.893a44.96,44.96,0,0,0,44.91-44.91V427.1A7.61,7.61,0,0,0,292.193,419.489Z" fill="#d67b35"/>
      </g>
    </g>
    <g id="Group_8" data-name="Group 8">
      <g id="Group_7" data-name="Group 7">
        <path id="Path_6" data-name="Path 6" d="M430.624,212.71,458.3,164.78a7.61,7.61,0,0,0-6.59-11.415H396.36l-27.672-47.93a7.609,7.609,0,0,0-13.18,0l-27.672,47.93H272.491a7.61,7.61,0,0,0-6.59,11.415l27.672,47.93L265.9,260.64a7.61,7.61,0,0,0,6.59,11.415h55.345l27.672,47.93a7.609,7.609,0,0,0,13.18,0l27.672-47.93h55.346a7.61,7.61,0,0,0,6.59-11.415Zm7.9-44.126L421.838,197.49l-16.689-28.906ZM362.1,124.459l16.689,28.906H345.409Zm-76.428,44.125H319.05L302.361,197.49Zm0,88.251,16.689-28.906,16.689,28.906ZM362.1,300.961,345.41,272.055h33.379Zm25.475-44.126H336.622L311.146,212.71l25.476-44.125h50.952L413.05,212.71Zm17.574,0,16.689-28.906,16.689,28.906Z" fill="#d67b35"/>
      </g>
    </g>
    <g id="Group_10" data-name="Group 10">
      <g id="Group_9" data-name="Group 9">
        <path id="Path_7" data-name="Path 7" d="M306.8,69.649H296.149V58.995a7.61,7.61,0,1,0-15.22,0V69.648H270.276a7.61,7.61,0,0,0,0,15.22h10.653V95.521a7.61,7.61,0,1,0,15.22,0V84.868H306.8a7.609,7.609,0,1,0,0-15.219Z" fill="#d67b35"/>
      </g>
    </g>
    <g id="Group_12" data-name="Group 12">
      <g id="Group_11" data-name="Group 11">
        <path id="Path_8" data-name="Path 8" d="M453.921,340.551H443.268V329.9a7.61,7.61,0,0,0-15.22,0v10.653H417.4a7.61,7.61,0,0,0,0,15.22h10.653v10.653a7.61,7.61,0,0,0,15.22,0V355.771h10.653a7.61,7.61,0,1,0,0-15.22Z" fill="#d67b35"/>
      </g>
    </g>
    <g id="Group_14" data-name="Group 14">
      <g id="Group_13" data-name="Group 13">
        <path id="Path_9" data-name="Path 9" d="M94.605,156.229H83.952V145.576a7.61,7.61,0,0,0-15.22,0v10.653H58.079a7.61,7.61,0,0,0,0,15.22H68.732V182.1a7.61,7.61,0,0,0,15.22,0V171.449H94.6a7.61,7.61,0,0,0,0-15.22Z" fill="#d67b35"/>
      </g>
    </g>
    <g id="Group_16" data-name="Group 16">
      <g id="Group_15" data-name="Group 15">
        <path id="Path_10" data-name="Path 10" d="M241.723,427.133H231.07V416.48a7.61,7.61,0,0,0-15.22,0v10.653H205.2a7.61,7.61,0,1,0,0,15.22H215.85v10.653a7.61,7.61,0,0,0,15.22,0V442.353h10.653a7.61,7.61,0,1,0,0-15.22Z" fill="#d67b35"/>
      </g>
    </g>
    <g id="Group_18" data-name="Group 18">
      <g id="Group_17" data-name="Group 17">
        <path id="Path_11" data-name="Path 11" d="M193.786,365.918a79.784,79.784,0,1,1-67.55-142.853q-.435.42-.862.847a70.654,70.654,0,0,0,76.532,115.422,7.609,7.609,0,1,0-5.72-14.1,55.434,55.434,0,1,1-33.812-105.26,7.61,7.61,0,0,0-.843-14.955,94.946,94.946,0,1,0,40.64,173.6,7.608,7.608,0,1,0-8.385-12.7Z" fill="#d67b35"/>
      </g>
    </g>
  </g>
</svg>
