<svg xmlns="http://www.w3.org/2000/svg" width="479.713" height="480.011" viewBox="0 0 479.713 480.011">
  <g id="wall-clock" transform="translate(-0.148 0)">
    <g id="Group_20" data-name="Group 20">
      <g id="Group_19" data-name="Group 19">
        <path id="Path_41" data-name="Path 41" d="M7.873,239.9h.28a8,8,0,0,0,8-7.728c4.328-123.636,108.063-220.354,231.7-216.027A224,224,0,0,1,378.585,64.011H336.009a8,8,0,0,0,0,16h64.112a8.071,8.071,0,0,0,1.84-.368,8.586,8.586,0,0,0,1.208-.264c.224-.1.392-.3.608-.416a7.649,7.649,0,0,0,1.952-1.368l.08-.056a7.672,7.672,0,0,0,.552-.872A7.713,7.713,0,0,0,407.409,75a7.616,7.616,0,0,0,.4-1.976,6.759,6.759,0,0,0,.2-1.008v-64a8,8,0,0,0-16,0V54.347C289.508-29.635,138.332-14.623,54.35,87.879A239.946,239.946,0,0,0,.153,231.635,8,8,0,0,0,7.873,239.9Z" fill="#d67b35"/>
        <path id="Path_42" data-name="Path 42" d="M72.641,388.883a8.016,8.016,0,0,0-12,10.632,243.724,243.724,0,0,0,17.432,17.664,8,8,0,0,0,10.792-11.808A225.759,225.759,0,0,1,72.641,388.883Z" fill="#d67b35"/>
        <path id="Path_43" data-name="Path 43" d="M168.113,452.227a222.984,222.984,0,0,1-21.512-8.552,8,8,0,0,0-7.1,14.338c.136.067.274.131.414.19a236.237,236.237,0,0,0,23.072,9.184,8,8,0,1,0,5.128-15.16Z" fill="#d67b35"/>
        <path id="Path_44" data-name="Path 44" d="M126.089,432.923v-.008a229.573,229.573,0,0,1-19.312-12.8,8,8,0,1,0-9.91,12.562c.13.1.262.2.4.3a242.667,242.667,0,0,0,20.664,13.72,8,8,0,0,0,8.16-13.769Z" fill="#d67b35"/>
        <path id="Path_45" data-name="Path 45" d="M58.153,370.827a227.033,227.033,0,0,1-12.544-19.464,8.01,8.01,0,1,0-13.88,8,242.087,242.087,0,0,0,13.44,20.808,8,8,0,0,0,12.984-9.344Z" fill="#d67b35"/>
        <path id="Path_46" data-name="Path 46" d="M35.839,334.017a8,8,0,0,0-.685-3.237l-.016-.056a223.409,223.409,0,0,1-8.28-21.6,8,8,0,1,0-15.438,4.2q.1.372.238.734a240.466,240.466,0,0,0,8.864,23.2,8,8,0,0,0,15.317-3.243Z" fill="#d67b35"/>
        <path id="Path_47" data-name="Path 47" d="M14.717,296.22h0a8,8,0,0,0,6.16-9.48,226.737,226.737,0,0,1-3.616-22.872,8,8,0,0,0-15.92,1.688,241.508,241.508,0,0,0,3.888,24.5A8,8,0,0,0,14.717,296.22Z" fill="#d67b35"/>
        <path id="Path_48" data-name="Path 48" d="M467.219,288.053l-.009,0a8,8,0,0,0-9.688,5.84,224.194,224.194,0,0,1-6.712,22.168,8,8,0,0,0,15.056,5.424,240.506,240.506,0,0,0,7.2-23.744A8,8,0,0,0,467.219,288.053Z" fill="#d67b35"/>
        <path id="Path_49" data-name="Path 49" d="M213.217,462.411a224.15,224.15,0,0,1-22.816-3.92,8,8,0,0,0-3.528,15.608,240.389,240.389,0,0,0,24.456,4.2,7.7,7.7,0,0,0,.96.056,8,8,0,0,0,.928-15.944Z" fill="#d67b35"/>
        <path id="Path_50" data-name="Path 50" d="M452.466,333.683h0a8,8,0,0,0-10.681,3.72,222.667,222.667,0,0,1-11.152,20.3,8,8,0,0,0,13.6,8.424,239.657,239.657,0,0,0,11.944-21.752A8,8,0,0,0,452.466,333.683Z" fill="#d67b35"/>
        <path id="Path_51" data-name="Path 51" d="M428.831,375.29a8,8,0,0,0-11.241,1.283c-.048.06-.1.121-.141.182v-.016a224.174,224.174,0,0,1-15.08,17.6,8,8,0,1,0,11.6,11.032,244.734,244.734,0,0,0,16.144-18.84A8,8,0,0,0,428.831,375.29Z" fill="#d67b35"/>
        <path id="Path_52" data-name="Path 52" d="M472.145,240.387a7.879,7.879,0,0,0-8.271,7.468c0,.081-.007.163-.009.244a224.188,224.188,0,0,1-2.008,23.072,8,8,0,0,0,6.816,9.016,7.632,7.632,0,0,0,1.12.08,8,8,0,0,0,7.912-6.9,242.247,242.247,0,0,0,2.152-24.712A8,8,0,0,0,472.145,240.387Z" fill="#d67b35"/>
        <path id="Path_53" data-name="Path 53" d="M385.609,410.251v.024a226.537,226.537,0,0,1-18.4,14.144,8.019,8.019,0,1,0,9.12,13.192,245.379,245.379,0,0,0,19.68-15.2,8,8,0,0,0-10.4-12.16Z" fill="#d67b35"/>
        <path id="Path_54" data-name="Path 54" d="M304.9,454.475h0a223.1,223.1,0,0,1-22.48,5.52,8,8,0,0,0,1.5,15.856,8.161,8.161,0,0,0,1.512-.136,236.88,236.88,0,0,0,24.1-5.928,8,8,0,0,0-4.624-15.312Z" fill="#d67b35"/>
        <path id="Path_55" data-name="Path 55" d="M259.889,463.142c-.147.008-.293.021-.439.037l.04.032c-6.4.544-12.952.8-19.48.8h-3.656a8.28,8.28,0,0,0-8.152,7.856,8,8,0,0,0,7.853,8.144h3.955c6.992,0,14-.312,20.8-.9a8,8,0,1,0-.921-15.973Z" fill="#d67b35"/>
        <path id="Path_56" data-name="Path 56" d="M347.521,436.563h.008a225.8,225.8,0,0,1-20.848,10.064,8,8,0,0,0,6.013,14.827c.06-.024.119-.049.178-.075A240.849,240.849,0,0,0,355.208,450.6a8,8,0,0,0-7.687-14.032Z" fill="#d67b35"/>
        <path id="Path_57" data-name="Path 57" d="M240.009,72.011a168,168,0,1,0,168,168A168,168,0,0,0,240.009,72.011Zm128,176H391.6A151.945,151.945,0,0,1,248.009,391.6V368.011a8,8,0,0,0-16,0V391.6A151.945,151.945,0,0,1,88.417,248.011h23.592a8,8,0,1,0,0-16H88.417A151.945,151.945,0,0,1,232.009,88.419v23.592a8,8,0,0,0,16,0V88.419A151.945,151.945,0,0,1,391.6,232.011H368.009a8,8,0,0,0,0,16Z" fill="#d67b35"/>
        <path id="Path_58" data-name="Path 58" d="M248.009,217.483V144.011a8,8,0,0,0-16,0v73.472a24,24,0,0,0-14.528,14.528H176.009a8,8,0,0,0,0,16h41.472a23.944,23.944,0,1,0,30.528-30.528Zm-8,30.528a8,8,0,1,1,8-8A8,8,0,0,1,240.009,248.011Z" fill="#d67b35"/>
      </g>
    </g>
  </g>
</svg>
