<svg xmlns="http://www.w3.org/2000/svg" width="850" height="850" viewBox="0 0 850 850">
  <g id="Group_1" data-name="Group 1" transform="translate(-535 -115)">
    <g id="Path_6" data-name="Path 6" transform="translate(535 115)" fill="#fff">
      <path d="M 748.9297485351562 849.5 L 101.0702209472656 849.5 C 94.24600219726562 849.5 87.42610931396484 848.820556640625 80.80010986328125 847.4806518554688 C 74.34288787841797 846.1748657226562 67.9913330078125 844.2264404296875 61.92200088500977 841.689453125 C 55.96277618408203 839.1985473632812 50.21500015258789 836.1154174804688 44.83855438232422 832.5257568359375 C 39.51311111450195 828.9703369140625 34.50533294677734 824.8870239257812 29.95422172546387 820.3894653320312 C 25.40333366394043 815.8920288085938 21.27155494689941 810.9432373046875 17.67399978637695 805.6805419921875 C 14.04199981689453 800.3677978515625 10.92255592346191 794.6881103515625 8.402222633361816 788.799560546875 C 5.835444450378418 782.8023071289062 3.864111185073853 776.5263061523438 2.542999982833862 770.14599609375 C 1.187333345413208 763.5989990234375 0.5 756.8604736328125 0.5 750.1175537109375 L 0.5 99.88255310058594 C 0.5 93.13966369628906 1.187333345413208 86.40110778808594 2.542999982833862 79.85411071777344 C 3.864111185073853 73.47366333007812 5.835444450378418 67.19766998291016 8.402222633361816 61.20044326782227 C 10.92255592346191 55.3118896484375 14.04199981689453 49.63233184814453 17.67399978637695 44.31944274902344 C 21.27155494689941 39.05677795410156 25.40333366394043 34.10800170898438 29.95422172546387 29.61055564880371 C 34.50533294677734 25.11300086975098 39.51311111450195 21.02966690063477 44.83855438232422 17.47422218322754 C 50.21500015258789 13.88455581665039 55.96277618408203 10.80155563354492 61.92200088500977 8.310555458068848 C 67.9913330078125 5.773555755615234 74.34288787841797 3.825111150741577 80.80010986328125 2.519333362579346 C 87.42610931396484 1.179444432258606 94.24600219726562 0.5 101.0702209472656 0.5 L 748.9297485351562 0.5 C 755.7540283203125 0.5 762.5739135742188 1.179444432258606 769.1998901367188 2.519333362579346 C 775.6571044921875 3.825111150741577 782.0086669921875 5.773555755615234 788.0780029296875 8.310555458068848 C 794.0372314453125 10.80155563354492 799.7849731445312 13.88455581665039 805.1614379882812 17.47422218322754 C 810.4868774414062 21.02966690063477 815.4946899414062 25.11300086975098 820.0457763671875 29.61055564880371 C 824.5966796875 34.10800170898438 828.7284545898438 39.05677795410156 832.3259887695312 44.31944274902344 C 835.9580078125 49.63233184814453 839.0774536132812 55.3118896484375 841.5977783203125 61.20044326782227 C 844.16455078125 67.19766998291016 846.1358642578125 73.47366333007812 847.4569702148438 79.85411071777344 C 848.8126831054688 86.40110778808594 849.5 93.13966369628906 849.5 99.88255310058594 L 849.5 750.1175537109375 C 849.5 756.8604736328125 848.8126831054688 763.5989990234375 847.4569702148438 770.14599609375 C 846.1358642578125 776.5263061523438 844.16455078125 782.8023071289062 841.5977783203125 788.799560546875 C 839.0774536132812 794.6881103515625 835.9580078125 800.3677978515625 832.3259887695312 805.6805419921875 C 828.7284545898438 810.9432373046875 824.5966796875 815.8920288085938 820.0457763671875 820.3894653320312 C 815.4946899414062 824.8870239257812 810.4868774414062 828.9703369140625 805.1614379882812 832.5257568359375 C 799.7849731445312 836.1154174804688 794.0372314453125 839.1985473632812 788.0780029296875 841.689453125 C 782.0086669921875 844.2264404296875 775.6571044921875 846.1748657226562 769.1998901367188 847.4806518554688 C 762.5739135742188 848.820556640625 755.7540283203125 849.5 748.9297485351562 849.5 Z" stroke="none"/>
      <path d="M 101.0701293945312 1 C 94.27911376953125 1 87.4925537109375 1.67608642578125 80.89923095703125 3.00946044921875 C 74.4739990234375 4.30877685546875 68.15399169921875 6.24755859375 62.11480712890625 8.77191162109375 C 56.18511962890625 11.25042724609375 50.46600341796875 14.3182373046875 45.1160888671875 17.8900146484375 C 39.817138671875 21.42791748046875 34.8341064453125 25.49090576171875 30.3056640625 29.96612548828125 C 25.7774658203125 34.44122314453125 21.66632080078125 39.365234375 18.0867919921875 44.6015625 C 14.47308349609375 49.8875732421875 11.36944580078125 55.5384521484375 8.86187744140625 61.3970947265625 C 6.3082275390625 67.36376953125 4.34698486328125 73.607666015625 3.03265380859375 79.9554443359375 C 1.68389892578125 86.4691162109375 1 93.173583984375 1 99.8824462890625 L 1 750.117431640625 C 1 756.8263549804688 1.68389892578125 763.53076171875 3.03265380859375 770.04443359375 C 4.34698486328125 776.3922119140625 6.3082275390625 782.6361083984375 8.86187744140625 788.602783203125 C 11.36944580078125 794.46142578125 14.47308349609375 800.1123046875 18.0867919921875 805.3983154296875 C 21.66632080078125 810.6346435546875 25.7774658203125 815.5587768554688 30.3056640625 820.0337524414062 C 34.8341064453125 824.5089721679688 39.817138671875 828.572021484375 45.1160888671875 832.10986328125 C 50.46600341796875 835.6817626953125 56.18511962890625 838.7495727539062 62.11480712890625 841.2280883789062 C 68.15399169921875 843.75244140625 74.4739990234375 845.6912231445312 80.89923095703125 846.9905395507812 C 87.4925537109375 848.3239135742188 94.27911376953125 849 101.0701293945312 849 L 748.9298095703125 849 C 755.7208862304688 849 762.50732421875 848.3239135742188 769.1007690429688 846.9905395507812 C 775.5260009765625 845.6912231445312 781.8460083007812 843.75244140625 787.88525390625 841.2280883789062 C 793.8148803710938 838.7495727539062 799.5339965820312 835.6817626953125 804.8839111328125 832.10986328125 C 810.182861328125 828.572021484375 815.1658935546875 824.5089721679688 819.6943359375 820.0337524414062 C 824.2225341796875 815.5587768554688 828.3336791992188 810.6346435546875 831.9132080078125 805.3983154296875 C 835.5269165039062 800.1123046875 838.6305541992188 794.46142578125 841.1381225585938 788.602783203125 C 843.6917724609375 782.6361083984375 845.6530151367188 776.3922119140625 846.9673461914062 770.04443359375 C 848.3161010742188 763.53076171875 849 756.8263549804688 849 750.117431640625 L 849 99.8824462890625 C 849 93.173583984375 848.3161010742188 86.4691162109375 846.9673461914062 79.9554443359375 C 845.6530151367188 73.607666015625 843.6917724609375 67.36376953125 841.1381225585938 61.3970947265625 C 838.6305541992188 55.5384521484375 835.5269165039062 49.8875732421875 831.9132080078125 44.6015625 C 828.3336791992188 39.365234375 824.2225341796875 34.44122314453125 819.6943359375 29.96612548828125 C 815.1658935546875 25.49090576171875 810.182861328125 21.42791748046875 804.8839111328125 17.8900146484375 C 799.5339965820312 14.3182373046875 793.8148803710938 11.25042724609375 787.88525390625 8.77191162109375 C 781.8460083007812 6.24755859375 775.5260009765625 4.30877685546875 769.1007690429688 3.00946044921875 C 762.50732421875 1.67608642578125 755.7208862304688 1 748.9298095703125 1 L 101.0701293945312 1 M 101.0701293945312 0 L 748.9298095703125 0 C 804.7493286132812 0 850 44.7188720703125 850 99.8824462890625 L 850 750.117431640625 C 850 805.281005859375 804.7493286132812 850 748.9298095703125 850 L 101.0701293945312 850 C 45.25067138671875 850 0 805.281005859375 0 750.117431640625 L 0 99.8824462890625 C 0 44.7188720703125 45.25067138671875 0 101.0701293945312 0 Z" stroke="none" fill="#fff"/>
    </g>
    <g id="rune" transform="translate(592.25 172.25)">
      <path id="Path_1" data-name="Path 1" d="M367.75,4.75c-200.479,0-363,162.521-363,363s162.521,363,363,363,363-162.521,363-363c-.226-200.386-162.614-362.774-363-363Zm0,704.557c-188.637,0-341.557-152.92-341.557-341.557S179.113,26.193,367.75,26.193,709.307,179.113,709.307,367.75C709.094,556.3,556.3,709.094,367.75,709.307Z" transform="translate(0)"/>
      <path id="Path_2" data-name="Path 2" d="M321.548,13.75c-169.992,0-307.8,137.806-307.8,307.8s137.806,307.8,307.8,307.8,307.8-137.806,307.8-307.8c-.193-169.912-137.886-307.606-307.8-307.8Zm0,594.158c-158.152,0-286.36-128.208-286.36-286.359S163.4,35.189,321.548,35.189,607.908,163.4,607.908,321.548C607.739,479.63,479.63,607.739,321.548,607.908Z" transform="translate(46.202 46.202)"/>
      <path id="Path_3" data-name="Path 3" d="M43.174,83.949a10.74,10.74,0,0,0-20.093,7.575,271.568,271.568,0,0,0,21.578,44.419,10.742,10.742,0,0,0,18.4-11.089A250.394,250.394,0,0,1,43.174,83.949Z" transform="translate(90.981 371.511)"/>
      <path id="Path_4" data-name="Path 4" d="M305.7,70.546,268.1,30.2a10.736,10.736,0,0,0-7.464-3.41,10.591,10.591,0,0,0-7.7,2.865l-77.5,71.982-77.5-71.982a10.741,10.741,0,0,0-15.168.545l-37.6,40.347a10.707,10.707,0,0,0,.546,15.135L119.158,153.9,46.481,221.41a10.7,10.7,0,0,0-.981,14.645l80.282,97.482L46.322,430a10.7,10.7,0,0,0,1.472,15.08L90.483,480.1a10.753,10.753,0,0,0,15.107-1.469l69.843-84.808,69.843,84.808a10.747,10.747,0,0,0,15.113,1.463L303.01,445.07A10.7,10.7,0,0,0,304.476,430l-79.4-96.441,80.294-97.5a10.7,10.7,0,0,0-.981-14.645L231.708,153.9l73.449-68.223A10.707,10.707,0,0,0,305.7,70.546Zm-97.069,75.515a10.707,10.707,0,0,0,0,15.692l73.737,68.48-79.484,96.521a10.687,10.687,0,0,0,0,13.61l78.2,94.972L255.04,456.764l-71.315-86.615a11.121,11.121,0,0,0-16.561,0l-71.339,86.6-26.1-21.429,78.239-94.941a10.687,10.687,0,0,0,0-13.61L68.495,230.232l73.737-68.48a10.707,10.707,0,0,0,0-15.692L68.188,77.3,91.164,52.62l76.957,71.5a10.748,10.748,0,0,0,14.622,0L259.7,52.62l22.976,24.661Z" transform="translate(192.317 113.089)"/>
      <path id="Path_5" data-name="Path 5" d="M104.173,54.806l-46,42.812a10.734,10.734,0,0,0-.981,14.671l46,55.975a10.746,10.746,0,0,0,16.561,0l46-55.975a10.734,10.734,0,0,0-.981-14.671l-46-42.812a10.734,10.734,0,0,0-14.6,0Zm7.311,89.74L80.2,106.456l31.281-29.134,31.281,29.134Z" transform="translate(256.266 241.869)"/>
    </g>
  </g>
</svg>
